<svg width="512" height="512" viewBox="0 0 512 512" fill="none" xmlns="http://www.w3.org/2000/svg">
  <!-- Background -->
  <rect width="512" height="512" rx="80" fill="#1E3A8A"/>
  
  <!-- Medical Cross -->
  <rect x="200" y="160" width="112" height="40" rx="20" fill="#FFFFFF"/>
  <rect x="220" y="140" width="40" height="112" rx="20" fill="#FFFFFF"/>
  
  <!-- Blockchain Chain -->
  <circle cx="120" cy="120" r="20" fill="#10B981" stroke="#FFFFFF" stroke-width="4"/>
  <circle cx="200" cy="120" r="20" fill="#10B981" stroke="#FFFFFF" stroke-width="4"/>
  <circle cx="280" cy="120" r="20" fill="#10B981" stroke="#FFFFFF" stroke-width="4"/>
  <circle cx="360" cy="120" r="20" fill="#10B981" stroke="#FFFFFF" stroke-width="4"/>
  
  <!-- Chain Links -->
  <line x1="140" y1="120" x2="180" y2="120" stroke="#FFFFFF" stroke-width="6" stroke-linecap="round"/>
  <line x1="220" y1="120" x2="260" y2="120" stroke="#FFFFFF" stroke-width="6" stroke-linecap="round"/>
  <line x1="300" y1="120" x2="340" y2="120" stroke="#FFFFFF" stroke-width="6" stroke-linecap="round"/>
  
  <!-- Pills -->
  <ellipse cx="150" cy="350" rx="30" ry="15" fill="#EF4444"/>
  <ellipse cx="250" cy="350" rx="30" ry="15" fill="#3B82F6"/>
  <ellipse cx="350" cy="350" rx="30" ry="15" fill="#10B981"/>
  
  <!-- QR Code Pattern -->
  <rect x="400" y="200" width="80" height="80" fill="#FFFFFF"/>
  <rect x="410" y="210" width="8" height="8" fill="#000000"/>
  <rect x="430" y="210" width="8" height="8" fill="#000000"/>
  <rect x="450" y="210" width="8" height="8" fill="#000000"/>
  <rect x="470" y="210" width="8" height="8" fill="#000000"/>
  <rect x="410" y="230" width="8" height="8" fill="#000000"/>
  <rect x="430" y="230" width="8" height="8" fill="#FFFFFF"/>
  <rect x="450" y="230" width="8" height="8" fill="#000000"/>
  <rect x="470" y="230" width="8" height="8" fill="#FFFFFF"/>
  <rect x="410" y="250" width="8" height="8" fill="#000000"/>
  <rect x="430" y="250" width="8" height="8" fill="#FFFFFF"/>
  <rect x="450" y="250" width="8" height="8" fill="#000000"/>
  <rect x="470" y="250" width="8" height="8" fill="#000000"/>
  <rect x="410" y="270" width="8" height="8" fill="#FFFFFF"/>
  <rect x="430" y="270" width="8" height="8" fill="#000000"/>
  <rect x="450" y="270" width="8" height="8" fill="#FFFFFF"/>
  <rect x="470" y="270" width="8" height="8" fill="#000000"/>
  
  <!-- App Name -->
  <text x="256" y="450" text-anchor="middle" fill="#FFFFFF" font-family="Arial, sans-serif" font-size="24" font-weight="bold">MedChain</text>
</svg> 